<?xml version="1.0" encoding="UTF-8" standalone="no"?>
<svg xmlns="http://www.w3.org/2000/svg" height="585.72" width="585.72">
<path d="m351.16 0-56.7 27.01 23.56 207.35L494.21 125.82 351.06 271.72 542.97 342.12 339.26 320.48 405.48 516.71 294.43 342.9 184.15 516.71 250.38 320.88 42.75 343.71 237.8 272.51 93.47 123.85l175 109.33 25.91-206.13-0.09 0.04L237.7 2.03 237.24 167.46 105.63 62.02 93.09 124.7 34.66 152.25 163.6 256.96 0 293.45l42.49 51.25-14.94 61.56 161.3-36.49-72.26 151.06 66.46-1.76 38.98 52.35 71.8-152.63 72.99 151.52 38.71-51.24 66.27 1.11L396.13 370.23 560.65 404.7 544.98 343.59 585.72 293.45 422.77 257.42 553.73 152.9 496.41 125.8 481.2 63.13 352.26 166.54 351.16 0Z" fill="#fff"/>
</svg>